<?xml version="1.0" standalone="no"?>
<!DOCTYPE svg PUBLIC "-//W3C//DTD SVG 20010904//EN"
 "http://www.w3.org/TR/2001/REC-SVG-20010904/DTD/svg10.dtd">
<svg version="1.0" xmlns="http://www.w3.org/2000/svg"
 width="500.000000pt" height="500.000000pt" viewBox="0 0 500.000000 500.000000"
 preserveAspectRatio="xMidYMid meet">
<metadata>
Created by potrace 1.14, written by Peter Selinger 2001-2017
</metadata>
<g transform="translate(0.000000,500.000000) scale(0.100000,-0.100000)"
fill="#000000" stroke="none">
<path d="M0 2500 l0 -2500 918 0 917 0 98 66 c54 37 149 112 210 168 62 56
126 112 142 125 17 12 56 47 88 77 55 52 57 55 57 106 0 75 22 159 52 199 l26
34 -48 119 c-27 65 -60 135 -74 156 -14 21 -32 60 -41 86 -9 27 -33 78 -53
114 -45 78 -95 109 -236 147 -152 41 -183 72 -211 209 -8 42 -36 155 -61 252
-53 206 -60 317 -30 435 15 57 16 75 6 115 -11 40 -10 52 4 82 20 42 34 65 64
107 12 17 22 36 22 41 0 6 31 36 69 68 67 55 81 75 81 122 0 12 2 22 4 22 2 0
28 -13 57 -29 75 -40 129 -54 147 -39 8 7 24 17 36 23 11 6 22 21 24 33 4 24
37 43 75 41 13 -1 3 -6 -23 -14 -25 -7 -36 -13 -26 -14 20 -1 20 -1 0 -15 -17
-13 -15 -14 26 -9 25 2 58 9 74 14 43 13 110 11 132 -5 18 -14 18 -15 -11 -21
-17 -4 -46 -11 -65 -16 -19 -5 -81 -12 -138 -16 -57 -3 -98 -9 -91 -13 8 -5 6
-11 -7 -19 -15 -8 4 -9 76 -5 52 4 100 10 105 14 6 5 43 12 83 15 39 4 72 12
72 16 0 5 7 9 15 9 20 0 19 24 -2 42 -35 29 -169 80 -224 85 -53 5 -57 4 -87
-28 -18 -19 -38 -46 -45 -61 -12 -28 -27 -37 -27 -17 0 14 21 53 33 60 5 4
-10 10 -34 14 -81 13 -135 43 -153 83 -21 49 -35 117 -36 170 0 48 15 57 23
14 3 -16 26 -71 51 -123 34 -72 53 -98 77 -112 29 -16 34 -16 41 -3 5 9 19 16
31 16 20 1 20 2 -6 16 -28 15 -36 34 -14 34 6 0 21 -7 31 -15 26 -20 90 -19
106 0 7 9 13 25 14 38 1 15 14 28 46 44 38 18 63 22 160 23 83 0 111 3 100 11
-11 8 -9 9 10 3 39 -10 79 -33 150 -83 58 -41 71 -46 119 -46 l54 0 13 -70 c8
-38 18 -90 23 -115 5 -25 17 -85 26 -135 27 -147 44 -198 63 -190 10 4 25 10
34 12 12 4 16 12 13 27 -3 13 4 32 18 49 21 25 32 28 98 33 41 3 88 12 106 20
17 8 38 14 46 14 9 0 19 5 22 10 9 14 25 12 25 -2 0 -7 -15 -38 -33 -68 -51
-84 -51 -86 -11 -130 50 -55 92 -55 72 0 -6 20 -19 31 -38 35 -16 3 -35 13
-42 22 -12 15 -9 16 29 11 l42 -6 -2 79 c-2 68 1 80 18 93 28 21 52 20 86 -5
70 -50 100 -194 61 -296 -25 -65 -99 -168 -132 -183 -61 -29 -122 -42 -217
-46 -79 -3 -101 -1 -98 9 5 12 -4 19 -75 61 l-34 21 14 -21 c63 -89 275 -268
290 -244 3 5 17 14 30 20 23 9 22 10 -12 7 -25 -2 -38 1 -38 9 0 14 -87 74
-106 74 -7 0 -16 5 -20 12 -5 8 7 9 47 5 62 -7 167 2 148 13 -7 5 5 11 30 15
28 5 41 12 42 23 0 11 2 12 6 4 2 -7 -7 -49 -20 -95 -40 -130 -41 -152 -7
-288 42 -170 66 -249 101 -325 16 -37 28 -68 27 -68 -37 -20 -136 -109 -195
-175 -83 -92 -512 -522 -634 -634 -41 -38 -86 -74 -100 -81 -26 -13 -27 -13
-60 57 -19 38 -44 81 -55 94 -12 14 -30 49 -40 79 -10 30 -21 54 -25 54 -15 0
-19 -86 -10 -180 10 -106 23 -150 46 -150 12 0 14 -6 9 -27 l-7 -27 23 22 c13
12 28 22 32 22 16 0 21 -31 9 -57 -10 -21 -9 -29 4 -43 8 -9 13 -19 11 -21 -2
-2 -6 -19 -9 -36 -6 -31 -5 -33 24 -33 38 0 30 -16 -11 -22 -29 -4 -29 -4 -36
54 -4 33 -11 55 -16 52 -5 -4 -8 -15 -5 -25 3 -11 2 -19 -2 -19 -4 0 -4 -25
-1 -56 3 -30 3 -57 -1 -60 -14 -8 -63 8 -76 24 -11 14 -15 14 -33 -3 -11 -10
-23 -27 -27 -39 -6 -18 -8 -16 -13 13 -8 55 -30 51 -32 -6 0 -26 -2 -52 -3
-58 -2 -5 -3 -15 -4 -21 0 -6 -12 -16 -26 -22 -52 -24 -26 -32 105 -32 l130 0
0 39 c0 22 4 43 10 46 6 4 10 -12 10 -39 l0 -46 36 0 37 0 -6 56 c-4 41 -3 54
5 46 6 -6 11 -32 12 -57 1 -36 5 -45 19 -45 12 0 17 8 17 29 0 17 5 33 11 36
7 5 8 -5 4 -29 l-7 -36 82 0 83 0 -7 31 c-3 17 -6 40 -6 51 0 14 -5 18 -15 14
-31 -12 -13 6 20 20 45 18 65 18 65 -2 0 -12 -7 -15 -25 -12 -24 5 -25 3 -25
-48 l0 -54 35 0 35 0 0 64 c0 38 -5 68 -12 72 -7 5 -5 11 7 21 36 25 40 16 36
-72 l-3 -85 66 0 c36 0 66 3 67 8 0 4 2 49 5 100 2 52 8 101 13 110 5 10 12
42 15 74 5 35 13 58 22 62 18 7 20 -49 3 -91 -11 -28 -26 -113 -36 -210 -4
-49 -3 -53 16 -53 18 0 21 6 21 48 0 26 7 74 15 107 8 33 14 101 15 151 0 77
3 94 19 108 19 17 19 16 10 -21 -5 -21 -9 -72 -9 -113 -1 -41 -7 -93 -15 -115
-8 -22 -15 -68 -15 -102 0 -60 1 -63 25 -63 16 0 30 9 40 28 l16 27 -6 -28 -5
-27 83 0 84 0 12 54 c11 51 33 105 84 204 16 30 23 37 25 24 3 -19 -43 -128
-59 -137 -5 -4 -9 -15 -9 -26 0 -10 -4 -19 -8 -19 -9 0 -32 -66 -32 -89 0 -15
37 -14 43 2 4 9 6 9 6 0 1 -8 16 -13 39 -13 l38 0 18 68 c9 37 21 88 25 114 4
26 10 51 14 55 13 13 16 -4 7 -38 -9 -30 -15 -133 -11 -181 1 -21 31 -25 31
-5 0 7 5 18 12 25 8 8 11 44 9 107 -2 88 0 95 17 95 18 0 19 -7 14 -120 -4
-99 -2 -120 9 -120 24 0 43 87 44 200 0 58 6 114 12 125 6 11 14 38 17 60 4
22 18 72 31 110 13 39 26 88 30 110 15 89 98 240 146 266 30 15 23 -7 -12 -44
-66 -68 -133 -207 -114 -237 5 -9 -25 -152 -45 -216 -6 -17 -10 -56 -10 -88 0
-31 -4 -65 -9 -74 -11 -22 -22 -160 -15 -189 5 -20 13 -23 49 -23 33 0 45 4
49 18 11 35 37 169 42 217 13 116 56 234 144 395 156 286 176 328 146 317 -13
-5 -13 1 5 36 12 23 33 59 47 80 23 34 27 37 33 21 7 -17 8 -16 8 4 1 19 6 22
45 22 34 0 46 4 49 18 2 11 11 2 25 -31 12 -27 19 -53 16 -59 -4 -6 -25 -18
-48 -29 -22 -10 -59 -37 -81 -60 -37 -38 -37 -40 -8 -19 27 19 35 21 48 10 12
-10 15 -10 15 4 0 19 4 20 55 2 l40 -14 -30 -12 c-119 -46 -236 -123 -260
-172 l-16 -33 25 27 c14 16 33 28 43 28 10 1 29 7 43 15 14 8 36 14 50 14 20
0 13 -6 -29 -27 -29 -14 -48 -28 -42 -30 22 -7 10 -20 -47 -50 -32 -17 -72
-49 -90 -71 -36 -45 -30 -56 9 -15 37 40 127 87 168 87 30 1 37 -3 39 -21 2
-13 -2 -22 -10 -23 -32 -2 -61 -10 -81 -24 -27 -19 -37 -19 -37 0 0 21 -27 19
-32 -2 -3 -10 -26 -28 -51 -41 -29 -14 -47 -30 -47 -40 0 -10 -6 -26 -13 -37
-8 -11 -22 -33 -31 -50 -15 -25 -11 -23 20 11 22 23 50 45 64 49 14 4 35 13
47 21 20 13 25 11 48 -11 14 -14 25 -21 25 -15 0 5 12 11 28 11 l27 1 -30 8
-30 8 35 1 c19 1 53 10 75 21 22 11 43 19 46 20 11 0 121 68 143 88 12 10 33
26 49 35 27 17 27 17 27 -9 0 -15 -3 -25 -6 -22 -3 4 -14 -2 -25 -13 -10 -10
-26 -19 -34 -19 -8 0 -15 -6 -15 -14 0 -13 -21 -27 -45 -31 -42 -6 -66 -19
-62 -34 2 -9 6 -22 8 -30 2 -7 -2 -16 -8 -18 -7 -3 -13 1 -13 7 0 22 -25 38
-43 28 -14 -7 -15 -13 -6 -30 8 -16 8 -22 -2 -29 -24 -14 -153 -57 -183 -61
-16 -2 -31 -8 -33 -15 -9 -27 123 9 262 72 42 19 96 34 133 38 59 6 63 5 71
-16 9 -21 9 -21 17 -2 4 11 15 27 23 35 13 13 14 13 7 -5 -5 -11 -12 -39 -16
-62 -4 -24 -15 -52 -25 -63 -10 -11 -23 -30 -29 -42 -7 -14 -26 -26 -48 -31
-22 -5 -40 -16 -43 -27 -3 -10 -13 -24 -21 -31 -15 -12 -236 -90 -242 -84 -7
7 81 67 149 101 105 53 197 122 221 169 10 19 10 19 -8 4 -22 -18 -146 -47
-303 -69 -35 -5 -70 -15 -77 -21 -8 -6 -25 -8 -38 -5 -29 7 -75 -17 -105 -56
-12 -14 -32 -29 -46 -32 -16 -4 -25 -13 -25 -26 0 -10 -4 -22 -10 -25 -14 -9
-32 -45 -23 -45 5 0 19 18 33 40 14 22 31 40 38 40 8 0 4 -12 -12 -36 -13 -20
-22 -42 -20 -48 3 -7 -16 -43 -41 -80 -51 -77 -62 -113 -12 -45 66 92 114 141
179 185 37 24 73 44 79 44 6 0 22 11 35 25 13 14 20 25 16 25 -17 0 58 34 103
46 42 11 52 11 64 0 20 -21 7 -33 -51 -47 -29 -6 -78 -25 -109 -41 -31 -15
-59 -28 -63 -28 -14 0 -125 -92 -149 -124 -15 -19 -33 -41 -41 -49 -8 -8 -16
-29 -18 -48 -2 -29 -8 -35 -33 -40 -26 -6 -25 -7 14 -8 39 -1 43 1 38 19 -4
16 -2 20 12 15 11 -3 25 5 39 25 12 16 31 34 42 40 17 9 20 8 20 -9 0 -11 -14
-27 -35 -40 -44 -26 -47 -51 -5 -51 22 0 33 7 45 28 25 46 62 85 74 78 17 -11
13 -31 -9 -51 -21 -19 -27 -55 -10 -55 6 0 14 8 17 18 24 65 62 77 55 17 l-4
-35 45 0 c27 0 47 5 50 13 4 9 6 9 6 0 1 -7 12 -13 26 -13 22 0 24 4 23 36 -1
21 5 40 13 46 10 7 4 8 -19 4 -18 -3 -31 -2 -28 3 8 13 93 51 113 51 24 0 7
-13 -35 -27 l-37 -12 43 2 c23 1 42 -1 42 -5 0 -5 -7 -8 -15 -8 -8 0 -15 -9
-15 -20 0 -24 8 -25 32 -3 10 9 21 13 25 10 8 -9 -27 -48 -38 -42 -16 10 -18
-13 -2 -26 14 -12 17 -12 21 0 2 7 14 23 25 34 l21 21 15 -32 c12 -27 20 -32
51 -32 l36 0 18 121 c16 104 17 138 8 254 -6 74 -8 143 -5 155 3 12 0 32 -7
44 -12 23 -10 81 6 155 5 26 4 32 -7 29 -8 -3 -13 -11 -12 -17 2 -6 -6 -11
-17 -11 -25 0 -25 12 0 35 11 10 20 22 20 28 0 5 9 22 21 38 16 23 17 29 6 29
-9 0 -17 -6 -20 -12 -2 -7 -8 -10 -12 -6 -12 11 21 38 47 39 15 0 18 3 8 6 -8
3 -23 14 -33 24 -23 25 -40 24 -74 -4 -32 -27 -60 -36 -145 -43 -34 -3 -72
-10 -86 -15 -21 -8 -23 -7 -14 4 7 8 30 19 53 26 23 7 48 15 57 18 11 5 13 3
7 -7 -6 -10 0 -11 26 -6 19 3 44 7 57 10 13 2 33 13 46 25 12 11 28 21 35 21
18 0 38 23 33 38 -2 7 6 29 18 48 26 46 19 56 -11 15 -13 -17 -27 -31 -31 -31
-12 0 19 57 36 67 15 8 33 63 21 63 -4 0 -29 -11 -57 -25 -58 -29 -59 -29 -52
-11 5 14 95 56 118 56 8 0 17 -35 25 -93 7 -50 18 -117 26 -147 51 -209 54
-240 24 -247 -13 -4 -17 -8 -9 -13 7 -4 -2 -10 -21 -14 -31 -6 -58 -30 -59
-51 0 -6 3 -6 8 1 12 18 56 44 73 44 11 0 18 -12 22 -38 4 -20 13 -71 22 -112
8 -41 15 -103 14 -136 -1 -34 1 -67 5 -73 4 -6 12 -51 17 -99 4 -48 11 -96 13
-107 2 -11 5 -32 5 -47 1 -37 28 -37 34 -1 l4 28 2 -27 c1 -22 6 -28 23 -28
17 0 19 3 10 12 -16 16 -15 73 1 90 8 9 13 51 14 126 l3 112 -32 0 c-37 0 -33
9 5 12 15 1 27 6 27 11 0 5 -10 6 -22 3 l-23 -6 22 11 c24 12 31 43 13 54 -6
4 -24 3 -41 0 l-31 -7 8 -76 c3 -43 10 -87 15 -99 13 -36 23 -153 12 -153 -11
0 -32 104 -43 215 -5 44 -13 104 -19 134 -6 29 -11 70 -11 90 0 20 -7 45 -15
55 -14 19 -21 56 -10 56 13 0 104 -51 111 -61 5 -8 -4 -10 -31 -7 -36 4 -37 4
-31 -26 8 -40 38 -99 53 -104 7 -2 14 17 18 53 4 30 11 58 16 61 5 3 9 30 9
60 0 46 -4 59 -23 75 -22 18 -22 18 -1 19 16 0 22 6 22 26 0 25 -3 26 -37 20
-20 -3 -43 -6 -51 -6 -9 -1 -5 -6 10 -15 l25 -14 -32 1 c-25 1 -33 6 -33 20 0
11 7 18 18 18 11 0 27 9 37 20 10 11 29 20 42 20 13 0 23 6 23 14 0 11 -11 15
-39 13 -22 0 -37 -5 -35 -9 3 -4 0 -8 -5 -8 -6 0 -11 4 -11 10 0 6 -9 6 -26 0
-34 -13 -34 -13 -34 10 0 18 7 20 75 20 67 0 75 2 75 19 0 10 -7 22 -16 25
-28 11 -98 6 -126 -8 l-28 -15 0 50 c0 46 2 49 25 49 14 0 42 -7 62 -15 44
-19 83 -19 83 -2 0 8 -10 19 -22 25 l-23 11 23 0 c20 1 22 5 21 49 -2 41 -6
50 -28 60 -14 7 -33 12 -43 12 -10 0 -18 5 -18 10 0 6 20 10 45 10 40 0 45 3
45 23 0 20 -4 22 -48 19 -37 -3 -53 1 -67 14 -9 10 -38 23 -63 29 -65 17 -69
39 -6 29 56 -8 54 4 -3 16 -28 7 -57 4 -112 -11 -41 -10 -87 -19 -102 -19 -32
0 -47 -16 -22 -23 11 -3 5 -5 -12 -6 -21 -1 -26 -4 -16 -10 11 -7 11 -10 -1
-17 -21 -13 -53 -64 -39 -64 6 0 11 4 11 10 0 16 53 61 95 81 22 10 61 19 88
19 40 0 47 -3 47 -19 0 -23 -19 -31 -70 -31 -21 0 -40 -3 -42 -7 -1 -5 -29
-20 -60 -36 -31 -15 -60 -32 -63 -37 -13 -21 -22 -8 -23 33 -2 31 4 51 18 67
21 25 20 38 -2 24 -7 -5 -20 -7 -29 -6 -9 2 -19 -4 -22 -13 -4 -8 -13 -15 -21
-15 -8 0 -20 -8 -26 -17 -11 -17 -11 -17 -6 -1 9 29 -5 21 -51 -28 -24 -25
-49 -44 -56 -41 -23 7 -19 38 8 59 14 11 24 23 21 25 -10 10 -57 -28 -66 -53
-8 -20 -16 -24 -51 -24 -38 0 -48 -6 -116 -73 -119 -115 -213 -254 -230 -339
-3 -18 -9 -35 -13 -38 -4 -3 -12 -27 -18 -55 -25 -116 -34 -145 -43 -139 -5 3
-9 -6 -9 -20 0 -32 -20 -45 -21 -14 -1 20 -2 21 -6 3 -3 -11 -10 -25 -15 -32
-7 -9 -4 -11 11 -8 22 4 27 -5 12 -20 -5 -6 -11 -21 -14 -35 -4 -21 -4 -20 -6
8 -1 31 -21 47 -21 17 0 -8 -4 -15 -10 -15 -5 0 -10 -12 -10 -27 0 -16 -5 -35
-10 -43 -8 -12 -10 -11 -10 7 0 49 108 342 168 457 15 28 28 54 30 57 1 3 -11
4 -28 1 -18 -3 -30 0 -30 7 0 7 -10 3 -22 -9 -26 -24 -20 -34 15 -21 36 14 39
4 11 -40 -13 -21 -24 -42 -24 -47 0 -5 -7 -9 -15 -9 -17 0 -20 24 -4 29 8 3 7
15 -6 41 -20 43 -28 38 -66 -38 -13 -27 -26 -52 -29 -55 -3 -3 -11 -16 -17
-30 -10 -22 -12 -23 -12 -4 -1 11 3 24 8 30 19 21 84 181 86 216 3 42 35 99
35 62 0 -11 -5 -25 -12 -32 -6 -6 -9 -14 -5 -18 3 -3 19 21 36 53 16 33 37 65
46 73 35 29 107 146 119 194 4 15 25 53 47 83 23 30 39 57 36 59 -3 3 -13 -8
-23 -25 -10 -17 -24 -31 -31 -31 -7 0 -13 -6 -14 -12 0 -7 -5 -2 -10 11 -5 13
-7 32 -4 41 6 18 44 40 73 41 14 0 14 2 -2 8 -26 10 -92 -2 -89 -17 4 -15 -4
-15 -63 3 -27 8 -68 15 -90 15 -41 0 -43 -2 -128 -109 -48 -61 -128 -155 -179
-209 -177 -190 -284 -308 -354 -387 -39 -44 -92 -98 -119 -120 -26 -22 -78
-66 -114 -98 -36 -33 -76 -66 -90 -75 -14 -9 -38 -26 -53 -39 -34 -27 -43 -24
-49 16 -4 25 -1 30 21 34 21 4 23 3 10 -6 -15 -12 -22 -47 -9 -47 3 0 16 13
28 29 15 21 18 31 9 34 -6 2 3 7 21 11 24 6 39 19 57 50 41 70 32 84 -26 41
-66 -48 -132 -75 -182 -73 -26 1 -47 7 -47 12 0 5 -6 17 -14 25 -8 9 -17 39
-20 66 -6 50 6 40 18 -15 8 -36 68 -74 106 -67 17 4 74 35 128 71 82 54 146
114 412 382 174 176 329 341 345 367 27 43 107 107 134 107 5 0 33 20 62 45
62 52 142 95 178 95 45 -1 104 -35 163 -95 l57 -58 88 12 c48 7 117 19 153 27
86 19 227 18 273 -1 19 -8 74 -23 122 -34 53 -12 106 -31 137 -50 27 -17 54
-31 59 -31 5 0 9 715 9 1860 l0 1860 -2500 0 -2500 0 0 -2500z m2590 1345 c17
-18 27 -22 36 -14 7 6 18 8 23 4 6 -3 48 -1 93 6 84 11 142 2 136 -20 -4 -15
69 -50 81 -38 6 6 21 0 44 -17 28 -22 39 -25 60 -17 18 7 28 6 36 -3 6 -7 30
-19 53 -26 24 -8 64 -33 90 -57 36 -32 55 -43 80 -43 21 0 63 -17 113 -46 44
-25 110 -62 148 -81 37 -20 66 -38 63 -40 -2 -2 -23 5 -46 17 -98 50 -34 -24
77 -88 63 -37 83 -56 149 -145 121 -162 149 -229 179 -431 21 -143 19 -180
-19 -297 -19 -57 -37 -124 -41 -149 -8 -50 -36 -111 -70 -152 -15 -17 -24 -46
-29 -88 -6 -52 -15 -72 -64 -143 -92 -132 -125 -177 -129 -173 -2 1 6 20 16
42 47 95 49 103 37 172 -3 18 -1 32 4 32 6 0 10 5 10 11 0 8 -20 10 -67 5 -67
-7 -67 -7 -49 13 10 11 38 23 62 27 24 3 44 10 44 15 0 8 42 30 95 47 29 10
28 10 -16 11 l-46 1 -7 43 c-7 39 -5 44 26 70 18 15 50 30 71 34 20 3 40 10
44 16 4 6 -4 7 -21 3 -17 -4 -25 -3 -22 3 8 12 -32 41 -59 42 -11 0 3 7 30 14
48 12 97 29 140 46 12 5 -3 7 -40 4 l-60 -4 57 11 56 11 7 55 c5 38 10 51 16
41 5 -8 9 -9 9 -3 0 25 -29 36 -67 26 l-38 -10 35 -2 c29 -1 32 -3 15 -10 -11
-5 -36 -9 -56 -9 -35 -1 -36 0 -33 29 2 17 -1 30 -6 30 -6 0 -4 10 5 23 8 13
12 27 8 30 -3 4 3 7 14 7 11 0 34 3 51 6 28 6 31 4 35 -22 2 -18 5 -10 6 22 2
76 -45 307 -75 365 -14 29 -76 48 -97 31 -14 -11 -78 -21 -72 -11 3 3 20 14
40 23 43 21 46 47 10 118 -32 64 -114 158 -137 158 -24 0 -66 26 -98 61 -33
36 -232 167 -273 180 -18 6 -42 16 -55 22 -13 6 -39 11 -58 11 -22 0 -34 5
-34 14 0 12 -56 39 -72 34 -4 -1 -47 14 -95 34 -56 22 -103 35 -128 34 -72 -3
-96 0 -90 10 3 6 -2 10 -13 10 -11 0 -40 3 -66 6 -45 7 -46 6 -46 -21 0 -35
29 -146 42 -162 6 -7 27 -12 47 -11 35 1 70 -13 99 -39 7 -7 20 -13 28 -13 8
0 23 -8 34 -17 18 -17 16 -18 -38 -14 -41 2 -51 6 -37 12 16 6 12 8 -17 8 -20
1 -40 -3 -43 -9 -8 -13 -52 -13 -60 0 -10 17 -96 50 -130 50 -18 0 -37 6 -42
13 -10 13 -43 109 -43 125 0 21 37 -1 55 -31 l19 -32 6 25 6 25 18 -27 c28
-43 35 -33 15 25 -10 28 -18 64 -19 78 0 26 -2 26 -47 21 -56 -6 -54 -4 -56
-30 0 -12 -3 -20 -5 -18 -2 2 -24 -2 -50 -8 -26 -7 -64 -11 -85 -8 -51 6 -137
-36 -168 -83 -13 -19 -30 -35 -36 -35 -7 0 -13 -4 -13 -10 0 -5 -6 -10 -14
-10 -8 0 -36 -25 -63 -55 -35 -42 -53 -55 -68 -51 -11 2 -29 0 -40 -4 -19 -8
-19 -9 3 -9 32 -1 38 -28 17 -70 -29 -56 -29 -58 0 -23 32 38 85 46 85 12 0
-18 -62 -70 -85 -70 -5 0 -29 -21 -52 -46 -49 -52 -57 -96 -22 -114 11 -7 27
-9 35 -6 9 3 14 -1 14 -14 0 -17 -7 -20 -42 -22 -37 -1 -39 -2 -10 -5 37 -5
46 -37 12 -48 -16 -5 -18 -10 -10 -25 6 -10 10 -28 10 -39 0 -14 5 -19 15 -15
8 4 15 2 15 -4 0 -10 -23 -22 -40 -22 -5 0 -10 17 -12 37 -2 27 -8 39 -20 41
-14 3 -18 -3 -18 -30 0 -68 31 -293 41 -299 7 -4 5 -9 -5 -12 -11 -5 -16 -20
-16 -52 0 -26 -5 -55 -10 -66 -10 -17 -16 -13 -75 46 -36 36 -65 74 -65 85 0
11 -11 43 -24 72 -13 29 -32 94 -41 143 -9 50 -21 108 -25 129 -10 50 -6 61
29 76 40 16 52 47 38 98 -10 38 -9 43 15 65 15 14 36 42 47 63 12 22 32 58 46
82 13 23 25 52 27 64 2 12 8 23 14 25 14 5 25 -45 13 -53 -8 -5 -39 -69 -39
-81 0 -3 7 0 15 7 8 7 15 18 15 24 0 6 7 24 15 39 21 42 28 92 16 116 -11 19
-8 24 24 42 19 12 35 25 35 29 0 4 18 15 40 24 22 9 40 20 40 26 0 5 12 10 26
10 24 0 26 -3 20 -30 -5 -28 -4 -30 14 -20 36 20 71 30 65 20 -3 -5 -1 -18 4
-27 8 -14 10 -9 11 25 0 39 13 57 22 30 3 -9 12 -9 38 2 28 12 30 15 14 21
-32 11 50 31 161 37 84 5 92 7 50 12 l-50 5 55 18 c30 10 63 25 74 33 27 18
47 18 40 -1 -4 -8 -1 -15 5 -15 6 0 11 8 11 18 0 40 36 43 70 7z m-94 -80
c-23 -17 -36 -19 -36 -6 0 5 8 12 18 14 32 9 37 6 18 -8z m-148 -110 c16 -59
91 -132 177 -171 69 -31 78 -47 27 -52 -33 -3 -124 31 -143 54 -6 8 -19 14
-28 14 -32 0 -48 34 -54 118 -3 45 -2 82 2 82 4 0 12 -20 19 -45z m-97 -8
c-13 -13 -26 -3 -16 12 3 6 11 8 17 5 6 -4 6 -10 -1 -17z m-35 -46 c-8 -12
-55 -20 -61 -10 -3 4 5 10 17 12 40 8 49 7 44 -2z m799 -34 c50 2 105 4 123 5
19 1 40 -5 50 -15 15 -16 15 -17 -1 -17 -9 0 -17 5 -17 10 0 14 -63 13 -77 -1
-7 -7 -50 -12 -105 -13 -88 -1 -95 0 -123 26 l-29 27 45 -12 c25 -8 82 -12
134 -10z m-758 -29 c-3 -7 -5 -2 -5 12 0 14 2 19 5 13 2 -7 2 -19 0 -25z
m-103 0 c-35 -42 -51 -48 -56 -20 -2 11 6 21 27 28 45 17 50 16 29 -8z m420
-23 c41 -19 67 -24 122 -24 38 1 93 1 122 0 29 0 56 0 60 0 4 1 68 0 142 -1
134 -2 134 -2 75 -14 -33 -6 -53 -14 -45 -17 35 -13 -39 -32 -135 -36 -55 -3
-109 -8 -120 -13 -25 -11 -205 -18 -205 -7 0 4 6 7 14 7 7 0 19 7 26 15 8 9
29 15 56 15 23 0 45 3 47 8 3 4 -14 6 -36 4 -34 -3 -50 2 -84 27 -24 17 -49
31 -56 31 -14 0 -57 29 -44 30 5 0 32 -11 61 -25z m709 9 c26 -9 47 -20 47
-26 0 -5 -9 -6 -22 -1 -13 4 -61 7 -108 6 -55 -1 -78 1 -65 7 11 5 37 9 58 9
20 1 37 6 37 11 0 13 -2 13 53 -6z m-1203 -16 c0 -7 3 -22 6 -33 4 -17 -2 -22
-35 -31 -43 -12 -55 -2 -21 16 11 6 23 22 26 35 6 26 24 35 24 13z m210 -21
c0 -24 46 -58 68 -50 6 3 12 -1 12 -8 0 -6 8 -18 18 -26 15 -11 8 -13 -48 -9
l-65 4 -3 62 c-2 41 0 60 7 55 6 -3 11 -16 11 -28z m86 -5 c12 -8 29 -52 20
-52 -3 0 -15 8 -26 18 -11 9 -25 18 -30 18 -6 1 -14 2 -20 3 -5 0 -10 6 -10
11 0 12 50 13 66 2z m1009 -30 c-6 -6 -34 11 -39 24 -4 11 0 10 18 -3 13 -10
23 -19 21 -21z m-70 11 c-25 -6 -44 -23 -26 -23 8 0 28 -13 45 -29 17 -17 43
-41 59 -55 19 -18 27 -35 27 -60 0 -19 5 -38 10 -41 12 -7 4 -25 -11 -25 -5 0
-9 9 -9 20 0 11 -4 28 -10 38 -5 9 -14 29 -20 45 -6 17 -17 27 -29 27 -11 0
-39 8 -63 18 -24 11 -74 22 -113 25 -38 4 -81 10 -95 13 -17 4 -21 3 -12 -4
18 -12 -17 -22 -73 -21 l-40 1 44 14 c25 8 49 18 55 24 5 5 32 10 58 10 26 0
48 4 48 9 0 6 24 12 53 14 79 5 124 5 102 0z m-691 -18 c-4 -8 -10 -12 -15 -9
-11 6 -2 24 11 24 5 0 7 -7 4 -15z m759 -12 c-7 -2 -19 -2 -25 0 -7 3 -2 5 12
5 14 0 19 -2 13 -5z m34 -15 c-3 -8 -6 -5 -6 6 -1 11 2 17 5 13 3 -3 4 -12 1
-19z m-961 -3 c14 -13 12 -15 -13 -14 -15 0 -22 3 -15 6 6 2 10 9 6 14 -8 14
6 10 22 -6z m427 -12 c-13 -2 -33 -2 -45 0 -13 2 -3 4 22 4 25 0 35 -2 23 -4z
m152 -34 c5 -5 16 -9 25 -8 10 0 9 3 -5 8 -18 7 -16 9 12 15 21 5 41 3 57 -6
110 -59 147 -75 152 -67 3 5 21 9 40 9 33 0 37 -3 65 -65 20 -42 28 -72 24
-86 -5 -15 0 -29 20 -49 15 -16 32 -27 39 -25 6 2 38 6 71 9 l61 7 28 -86 c16
-46 32 -83 36 -80 5 3 5 18 0 33 -4 16 -8 47 -8 70 0 22 -5 49 -11 59 -5 10
-11 43 -12 72 -2 42 1 57 14 65 24 15 39 -4 48 -61 5 -36 4 -51 -7 -59 -7 -6
-12 -13 -10 -15 2 -2 5 -42 7 -89 2 -61 10 -102 27 -144 13 -32 22 -70 20 -85
-3 -26 -4 -26 -108 -32 -58 -3 -112 -2 -120 2 -13 7 -12 8 3 9 9 0 17 5 17 10
0 6 12 10 28 10 15 0 34 5 42 10 17 11 -18 14 -102 10 -43 -2 -52 3 -122 59
-42 33 -72 62 -67 65 5 3 11 -1 15 -9 3 -9 18 -15 37 -15 27 0 21 5 -46 41
-76 40 -78 40 -154 34 -42 -4 -84 -9 -93 -11 -10 -3 -18 -1 -18 5 0 7 24 11
58 12 31 0 66 4 77 9 14 6 2 8 -35 5 l-55 -5 40 14 c22 7 71 12 110 10 63 -3
68 -2 51 12 -19 13 -19 14 8 14 20 0 43 -15 82 -51 67 -65 174 -146 209 -159
14 -5 36 -10 47 -10 21 0 21 0 -1 24 -12 13 -59 47 -104 75 -45 28 -109 71
-142 96 -68 50 -103 56 -180 30 -80 -28 -170 -34 -213 -15 -20 9 -59 19 -87
23 -50 6 -74 14 -130 45 -25 14 -27 17 -11 20 10 2 21 0 25 -6 11 -18 49 -24
58 -9 4 8 15 17 23 20 11 4 10 6 -5 6 -11 1 -26 5 -33 10 -8 5 10 8 45 9 43 1
53 -1 38 -9 -15 -7 -13 -8 13 -3 33 6 132 -21 132 -36 0 -4 -37 -11 -82 -15
-68 -6 -78 -9 -58 -17 14 -5 45 -6 69 -3 56 9 156 8 184 -1 19 -6 20 -5 9 9
-8 9 -46 28 -85 42 -40 15 -91 37 -115 48 -49 25 -116 28 -226 9 -74 -13 -82
-12 -73 13 5 11 22 15 74 15 49 0 64 3 53 10 -10 7 6 8 51 4 45 -4 69 -3 73 5
4 6 24 11 44 10 33 -1 34 -2 12 -9 -24 -8 -23 -8 8 -9 20 -1 31 3 27 9 -4 6 9
10 31 10 21 0 35 -3 31 -6 -3 -3 24 -22 60 -41 36 -18 78 -42 92 -52 55 -39
103 -61 134 -61 28 0 19 7 -67 55 -55 30 -109 63 -120 73 -12 11 -28 22 -36
25 -12 4 -11 6 3 6 11 1 15 6 11 12 -4 8 4 9 27 4 44 -10 105 -40 152 -77 43
-34 47 -28 12 18 -23 30 -116 84 -147 84 -7 1 -31 9 -53 20 -59 28 -219 24
-195 -5 8 -10 2 -14 -22 -19 -54 -11 -191 -26 -196 -22 -2 3 29 14 70 25 125
36 178 55 178 63 0 4 10 8 23 9 12 0 16 3 9 6 -7 2 -31 -2 -55 -10 -43 -14
-72 -13 -61 4 3 5 0 9 -5 9 -6 0 -11 -4 -11 -9 0 -4 -11 -6 -24 -4 -13 3 -37
-3 -52 -12 l-29 -16 45 6 c26 4 41 2 35 -3 -23 -20 -185 -62 -255 -65 -41 -2
-105 -14 -142 -25 -38 -12 -96 -31 -131 -42 -35 -11 -81 -20 -102 -20 -21 0
-56 -8 -77 -17 -35 -15 -38 -20 -38 -55 0 -21 8 -50 17 -65 17 -26 17 -26 -5
-12 -12 8 -23 21 -23 29 -14 139 -11 214 10 268 l18 46 11 -35 c12 -35 11 -63
-1 -75 -4 -4 -7 -23 -7 -43 0 -36 0 -36 13 -11 15 31 47 39 48 13 1 -16 2 -16
6 -1 2 9 -1 27 -8 40 -7 13 -15 39 -19 59 l-7 36 61 4 c112 7 189 4 194 -9 4
-14 43 -16 58 -3 16 15 97 30 194 37 52 3 92 3 89 0 -8 -8 -191 -36 -236 -36
-18 0 -33 -4 -33 -9 0 -15 65 -17 172 -5 57 6 94 12 83 14 -11 1 6 6 38 11 31
5 74 14 96 21 41 14 130 12 146 -3z m-549 -1 c-33 -6 -52 -6 -60 2 -7 7 8 10
50 9 l59 -1 -49 -10z m341 6 c-3 -3 -12 -4 -19 -1 -8 3 -5 6 6 6 11 1 17 -2
13 -5z m717 -55 c-27 -11 -54 -11 -54 0 0 11 49 20 64 12 5 -2 1 -8 -10 -12z
m-1594 -26 c-1 -11 -50 -70 -50 -60 0 16 31 67 40 67 6 0 10 -3 10 -7z m1113
0 c-7 -2 -19 -2 -25 0 -7 3 -2 5 12 5 14 0 19 -2 13 -5z m567 -3 c0 -5 8 -10
17 -10 14 0 14 -3 5 -12 -10 -10 -15 -10 -22 2 -7 10 -12 12 -17 4 -5 -6 -44
-14 -88 -17 -91 -7 -76 8 18 18 31 4 57 11 57 16 0 5 7 9 15 9 8 0 15 -4 15
-10z m-521 -24 c-2 -2 -40 -6 -84 -9 -46 -3 -69 -2 -55 3 24 8 147 14 139 6z
m621 -43 c0 -16 9 -43 20 -61 11 -18 20 -35 20 -37 0 -10 -36 -5 -48 7 -14 14
-16 118 -2 118 6 0 10 -12 10 -27z m-1850 2 c0 -8 -7 -15 -15 -15 -8 0 -15 7
-15 15 0 8 7 15 15 15 8 0 15 -7 15 -15z m869 11 c-11 -9 -69 -14 -69 -6 0 6
17 10 37 10 20 0 34 -2 32 -4z m-114 -23 c-16 -2 -48 -9 -70 -15 -22 -6 -47
-13 -55 -15 -29 -8 -174 -14 -167 -7 16 17 170 41 257 41 36 0 52 -2 35 -4z
m960 -2 c-14 -14 -113 -26 -100 -13 9 10 40 17 90 21 12 0 15 -3 10 -8z m-947
-28 c-10 -2 -26 -2 -35 0 -10 3 -2 5 17 5 19 0 27 -2 18 -5z m157 -23 c4 -6
-6 -10 -22 -9 -25 0 -26 1 -8 9 11 5 21 9 22 9 1 1 5 -3 8 -9z m-490 -10 c-11
-5 -29 -9 -40 -9 -17 -1 -17 1 -5 9 8 5 26 9 40 9 23 0 23 -1 5 -9z m1291 -1
c10 -17 -17 -29 -66 -28 -37 1 -41 2 -20 9 25 8 25 8 -5 10 -26 1 -27 3 -10
10 29 13 93 12 101 -1z m-1206 -29 c-20 -13 -63 -13 -55 0 3 6 21 10 38 10 24
0 28 -3 17 -10z m160 0 c-14 -4 -43 -8 -65 -8 -34 0 -36 1 -15 8 14 4 43 8 65
8 34 0 36 -1 15 -8z m33 -17 c-7 -2 -19 -2 -25 0 -7 3 -2 5 12 5 14 0 19 -2
13 -5z m-66 -9 c-3 -3 -12 -4 -19 -1 -8 3 -5 6 6 6 11 1 17 -2 13 -5z m-189
-31 c-10 -2 -26 -2 -35 0 -10 3 -2 5 17 5 19 0 27 -2 18 -5z m-125 -20 c-7 -2
-19 -2 -25 0 -7 3 -2 5 12 5 14 0 19 -2 13 -5z m-260 -73 c3 -11 2 -20 -3 -20
-4 0 -10 11 -12 25 -6 29 7 25 15 -5z m1006 16 c-12 -10 -79 -16 -79 -6 0 5
19 10 42 10 23 0 39 -2 37 -4z m811 -6 c-8 -5 -24 -10 -35 -10 -17 0 -17 2 -5
10 8 5 24 10 35 10 17 0 17 -2 5 -10z m-585 -25 l-40 -13 40 -2 c39 -2 40 -2
12 -12 -32 -11 -97 -2 -97 14 0 6 -11 8 -30 5 -16 -4 -30 -2 -30 3 0 8 48 13
160 17 18 1 14 -3 -15 -12z m674 -19 c-2 -2 -26 -6 -53 -9 -30 -3 -43 -1 -35
4 13 8 97 13 88 5z m-583 -55 c73 -58 124 -108 117 -115 -13 -13 -101 -6 -113
9 -11 13 -7 16 21 22 53 10 6 22 -63 16 -31 -3 -64 -3 -72 0 -27 11 -6 37 35
43 23 4 39 12 39 20 0 14 -23 19 -67 15 -13 -1 -23 1 -23 4 0 7 40 24 61 24 9
1 38 -17 65 -38z m-187 -90 l-1 -66 -8 52 c-4 29 -11 65 -15 80 -5 23 -4 25 9
14 12 -10 16 -31 15 -80z m-1124 54 c-38 -14 -85 -22 -85 -15 0 5 10 11 23 13
27 5 76 7 62 2z m1806 -38 c-8 -8 -11 -7 -11 4 0 20 13 34 18 19 3 -7 -1 -17
-7 -23z m-1244 -13 c-3 -3 -12 -4 -19 -1 -8 3 -5 6 6 6 11 1 17 -2 13 -5z
m1243 -103 c6 -40 12 -76 14 -80 3 -4 1 -13 -5 -21 -6 -11 -9 -7 -10 15 -1 24
-3 25 -6 7 -10 -51 -23 -5 -23 81 0 108 14 107 30 -2z m-263 42 c-11 -11 -67
-13 -67 -3 0 6 17 10 37 10 20 0 33 -3 30 -7z m146 -6 c3 -9 -10 -17 -44 -23
-27 -6 -49 -7 -49 -3 0 9 26 19 51 19 10 0 19 5 19 10 0 15 17 12 23 -3z
m-318 -17 c-46 -12 -103 -12 -85 0 8 5 38 9 65 9 44 -1 46 -2 20 -9z m45 -61
c-31 -9 -115 -11 -107 -3 8 9 110 21 122 15 5 -3 -1 -8 -15 -12z m-115 -29
c-28 -12 -67 -12 -60 0 3 6 23 10 43 9 30 0 33 -2 17 -9z m-35 -24 c0 -2 -7
-6 -15 -10 -8 -3 -15 -1 -15 4 0 6 7 10 15 10 8 0 15 -2 15 -4z m714 -45 c7
-11 -28 -21 -74 -21 -20 0 -40 -4 -45 -9 -6 -5 -34 -11 -64 -14 -48 -4 -52 -3
-36 9 10 8 25 14 32 14 7 0 13 5 13 11 0 7 18 8 53 4 28 -4 63 -2 77 4 32 13
38 13 44 2z m1 -31 c-3 -5 -14 -10 -23 -10 -15 0 -15 2 -2 10 20 13 33 13 25
0z m-10 -29 c-11 -5 -54 -16 -95 -25 -41 -10 -83 -20 -92 -22 -10 -3 -18 -1
-18 4 0 12 143 50 190 50 27 1 31 -1 15 -7z m-208 -296 c0 -18 -33 -28 -73
-23 -26 4 -25 5 14 13 23 4 42 11 42 16 0 5 4 9 8 9 5 0 9 -7 9 -15z m-87 -45
c0 -5 -10 -10 -22 -10 -19 0 -20 2 -8 10 19 13 30 13 30 0z m63 3 c-7 -2 -19
-2 -25 0 -7 3 -2 5 12 5 14 0 19 -2 13 -5z m-273 -44 c-47 -16 -92 -28 -100
-26 -17 4 135 55 165 55 11 0 -18 -13 -65 -29z m213 4 c-7 -2 -21 -2 -30 0
-10 3 -4 5 12 5 17 0 24 -2 18 -5z m-53 -137 c0 -3 -4 -8 -10 -11 -5 -3 -10
-1 -10 4 0 6 5 11 10 11 6 0 10 -2 10 -4z m43 -183 c-7 -2 -21 -2 -30 0 -10 3
-4 5 12 5 17 0 24 -2 18 -5z m-3 -173 c-7 -77 -17 -143 -21 -146 -13 -7 -6
205 6 214 10 7 11 10 14 59 0 14 4 23 7 20 4 -4 1 -70 -6 -147z m195 -290 c3
-5 3 -10 -2 -10 -4 0 -19 -3 -33 -6 -24 -5 -24 -5 -6 10 23 19 32 20 41 6z
m79 -25 c3 -9 0 -15 -8 -15 -8 0 -16 7 -20 15 -3 9 0 15 8 15 8 0 16 -7 20
-15z m-31 -36 c-15 -15 -133 -25 -133 -11 0 7 27 13 68 15 37 2 69 4 72 5 2 1
-1 -3 -7 -9z m77 -32 c0 -19 -55 -93 -131 -173 -54 -58 -72 -87 -100 -157 -18
-47 -36 -85 -39 -85 -31 2 -54 -34 -84 -132 -16 -51 -37 -107 -57 -155 -5 -11
-20 -63 -34 -115 -43 -159 -66 -234 -76 -252 -5 -10 -9 -25 -9 -33 0 -8 -4
-15 -10 -15 -5 0 -3 19 5 43 8 23 21 71 31 107 44 174 96 334 140 437 8 17 14
36 14 42 0 19 58 135 97 192 96 142 117 168 144 179 17 7 32 23 35 36 3 13 10
24 15 24 5 0 15 16 23 35 15 34 36 48 36 22z m-92 -40 c3 -14 -4 -17 -36 -17
-37 0 -112 24 -112 35 0 3 33 4 72 2 60 -2 73 -6 76 -20z m1012 -27 c13 -11
17 -20 10 -20 -24 0 -90 23 -90 32 0 16 57 8 80 -12z m-5 -54 c59 -22 59 -25
-7 -25 -52 -1 -68 2 -68 13 0 24 29 29 75 12z m-255 -50 c0 -19 -7 -23 -55
-30 l-40 -6 32 15 c17 8 34 19 38 25 9 15 25 12 25 -4z m-360 -4 c0 -4 -23
-32 -51 -62 -49 -54 -109 -158 -109 -192 0 -9 -4 -20 -10 -23 -13 -8 -13 19
-1 43 5 9 18 39 29 65 10 27 45 77 77 113 59 65 65 70 65 56z m735 -12 c-3 -5
-16 -10 -28 -10 -18 0 -19 2 -7 10 20 13 43 13 35 0z m-808 -6 c-3 -3 -12 -4
-19 -1 -8 3 -5 6 6 6 11 1 17 -2 13 -5z m744 -16 c20 -18 21 -20 4 -14 -11 5
-37 10 -58 13 -51 8 -57 23 -9 23 26 0 47 -7 63 -22z m-456 -43 c-22 -8 -47
-14 -55 -14 -25 1 43 28 70 28 20 0 17 -3 -15 -14z m380 5 c3 -5 1 -10 -4 -10
-6 0 -11 5 -11 10 0 6 2 10 4 10 3 0 8 -4 11 -10z m-185 -6 c0 -5 -47 -26 -87
-38 -17 -6 -23 -3 -23 8 0 9 14 19 33 25 37 11 77 14 77 5z m-860 -25 c0 -5
-4 -9 -10 -9 -5 0 -10 7 -10 16 0 8 5 12 10 9 6 -3 10 -10 10 -16z m-258 -113
c-39 -39 -91 -105 -116 -147 -25 -42 -54 -83 -63 -90 -15 -13 -16 -11 -9 15 4
17 15 37 25 45 10 9 31 39 46 66 16 28 32 52 35 55 4 3 33 37 65 75 69 82 79
90 83 68 3 -9 -25 -45 -66 -87z m649 27 c-16 -27 -55 -101 -87 -166 -32 -66
-60 -114 -62 -109 -5 16 122 276 147 301 33 33 33 25 2 -26z m379 -53 c-8 -5
-23 -10 -32 -10 -10 0 -18 -7 -18 -14 0 -12 -6 -13 -32 -4 -49 16 -60 32 -18
24 19 -3 42 -1 50 4 8 5 26 10 40 10 20 0 22 -2 10 -10z m88 -38 c-25 -40 -58
-61 -109 -67 -26 -2 -55 -8 -65 -12 -17 -6 -17 -5 -1 17 21 30 169 110 182 98
6 -5 3 -18 -7 -36z m-1065 5 c-6 -12 -18 -41 -28 -64 -9 -23 -25 -43 -35 -46
-10 -2 -24 -16 -31 -29 -61 -111 -75 -144 -97 -223 -13 -49 -28 -110 -34 -135
-6 -26 -23 -58 -39 -75 -16 -17 -29 -38 -29 -47 0 -9 -4 -20 -10 -23 -5 -3
-10 -19 -10 -36 0 -16 -4 -29 -9 -29 -11 0 -2 70 10 86 5 6 11 39 14 73 3 34
9 70 14 80 6 10 13 49 17 87 6 71 22 124 38 124 4 0 6 -7 2 -15 -3 -9 -12 -59
-21 -113 -9 -53 -23 -112 -31 -130 -17 -37 -15 -46 9 -36 9 3 19 22 22 42 4
21 10 46 15 57 5 11 18 62 30 114 11 52 28 108 37 125 22 43 100 163 136 209
31 40 48 42 30 4z m-224 -39 c-1 -42 -1 -42 -10 -13 -5 17 -7 36 -4 43 9 24
15 11 14 -30z m291 -57 c-17 -39 -40 -89 -52 -109 -12 -20 -24 -50 -27 -66 -4
-16 -12 -31 -19 -34 -15 -5 4 48 74 201 54 119 74 126 24 8z m791 66 c-13 -13
-26 -3 -16 12 3 6 11 8 17 5 6 -4 6 -10 -1 -17z m-81 -32 c-7 -8 -17 -15 -23
-15 -6 0 -2 7 9 15 25 19 30 19 14 0z m-630 -39 c0 -11 -19 -15 -25 -6 -3 5 1
10 9 10 9 0 16 -2 16 -4z m1206 -33 c-6 -6 -36 9 -36 18 0 5 9 4 20 -3 10 -7
18 -14 16 -15z m-476 7 c0 -5 -6 -10 -13 -10 -17 0 -59 -35 -57 -47 2 -10 -83
-39 -138 -46 -62 -8 -49 13 29 44 35 14 87 35 114 46 59 25 65 26 65 13z
m-750 -20 c0 -5 -5 -10 -11 -10 -5 0 -7 5 -4 10 3 6 8 10 11 10 2 0 4 -4 4
-10z m935 -26 c0 -34 -25 -48 -102 -58 -56 -7 -75 8 -25 19 15 3 45 21 67 40
46 40 60 40 60 -1z m-667 -37 c-8 -12 -23 -44 -32 -72 -10 -27 -22 -59 -26
-70 -15 -38 -30 -153 -31 -236 -1 -46 -5 -95 -9 -109 -13 -39 -5 227 9 290 26
115 88 263 99 232 2 -7 -3 -23 -10 -35z m-241 11 c-3 -8 -6 -5 -6 6 -1 11 2
17 5 13 3 -3 4 -12 1 -19z m-60 -30 c-3 -8 -6 -5 -6 6 -1 11 2 17 5 13 3 -3 4
-12 1 -19z m-457 -35 c0 -23 -4 -33 -9 -27 -9 8 -4 64 5 64 2 0 4 -17 4 -37z
m-48 10 c6 -22 -1 -43 -13 -43 -5 0 -9 14 -9 30 0 33 15 41 22 13z m1441 10
c-7 -2 -21 -2 -30 0 -10 3 -4 5 12 5 17 0 24 -2 18 -5z m-1162 -89 c-12 -26
-21 -59 -21 -75 0 -15 -4 -31 -10 -34 -5 -3 -10 -16 -10 -28 0 -12 -7 -35 -15
-51 -8 -15 -15 -36 -16 -45 0 -11 -2 -12 -6 -3 -3 8 -1 24 5 35 5 12 18 54 27
92 22 95 59 194 63 173 2 -9 -6 -38 -17 -64z m250 49 c-12 -20 -14 -14 -5 12
4 9 9 14 11 11 3 -2 0 -13 -6 -23z m-48 -30 c-3 -16 -15 -41 -25 -58 -17 -26
-19 -27 -13 -6 20 68 54 124 38 64z m-452 -22 c7 12 9 11 9 -2 0 -21 -36 -54
-90 -79 -41 -20 -42 -21 -12 -16 17 3 32 2 32 -3 0 -10 -135 -64 -149 -60 -17
6 85 116 128 139 27 14 31 19 16 20 l-20 1 20 8 c14 6 22 4 27 -8 5 -13 7 -12
7 5 1 33 16 39 19 8 3 -21 6 -24 13 -13z m481 -1 c-2 -16 -8 -30 -13 -30 -11
0 -11 3 1 34 13 34 18 33 12 -4z m-145 -37 c-3 -10 -5 -4 -5 12 0 17 2 24 5
18 2 -7 2 -21 0 -30z m1138 -10 c-4 -21 -15 -43 -26 -51 -13 -9 -17 -20 -13
-37 3 -12 1 -26 -5 -29 -17 -11 -14 69 3 83 8 6 19 25 26 41 17 41 24 38 15
-7z m-1018 -25 c-3 -8 -6 -5 -6 6 -1 11 2 17 5 13 3 -3 4 -12 1 -19z m-153
-118 c-38 -99 -53 -128 -53 -107 -1 11 5 33 13 50 25 58 35 91 42 142 l8 50 7
-35 c6 -26 2 -51 -17 -100z m-849 90 c-32 -21 -45 -19 -25 5 7 8 22 15 34 15
19 0 18 -2 -9 -20z m985 -47 c-17 -61 -35 -83 -26 -30 8 44 27 89 34 82 3 -2
-1 -26 -8 -52z m554 42 c-10 -8 -24 -15 -30 -15 -6 0 -19 -9 -29 -20 -22 -24
-40 -27 -27 -4 12 22 63 54 86 54 20 0 20 0 0 -15z m-1535 -60 c0 -5 -4 -3 -9
5 -5 8 -9 22 -9 30 0 16 17 -16 18 -35z m931 35 c0 -5 -5 -10 -11 -10 -5 0 -7
5 -4 10 3 6 8 10 11 10 2 0 4 -4 4 -10z m1010 -36 c6 -14 13 -42 16 -62 l6
-38 -103 -23 c-75 -17 -104 -21 -107 -12 -3 9 -7 9 -18 0 -8 -6 -12 -15 -9
-19 3 -5 1 -11 -4 -14 -10 -7 -21 49 -12 62 11 15 40 21 44 9 2 -7 3 -4 2 5
-2 13 10 24 42 38 25 11 61 33 79 50 42 37 52 37 64 4z m-1450 -21 c-15 -77
-40 -113 -76 -113 -17 0 -24 -7 -26 -27 -3 -22 -6 -17 -12 22 -9 48 -8 50 24
75 19 14 45 37 59 53 33 36 40 34 31 -10z m595 16 c0 -8 -10 -15 -22 -17 -13
-2 -23 2 -23 8 0 6 5 8 10 5 6 -3 10 1 10 10 0 9 6 15 13 13 6 -3 12 -11 12
-19z m-935 -69 c-10 -19 -9 -21 7 -18 13 2 19 15 23 48 l6 45 18 -42 c10 -24
22 -43 27 -43 5 0 6 7 3 15 -4 10 0 15 13 15 10 0 27 6 38 13 32 21 75 37 75
29 0 -9 -115 -92 -127 -92 -4 0 -19 -6 -33 -13 -34 -18 -119 -41 -126 -34 -3
3 -4 18 -2 34 l4 28 12 -25 c10 -23 11 -20 10 24 -1 43 3 53 28 74 l29 26 3
-32 c2 -17 -2 -41 -8 -52z m784 -66 c-9 -22 -19 -52 -23 -69 -4 -16 -14 -31
-23 -33 -12 -2 -10 9 13 57 16 34 29 71 29 84 0 30 14 45 18 19 2 -11 -4 -37
-14 -58z m-934 38 c0 -5 -7 -17 -15 -28 -15 -19 -20 -8 -9 20 6 17 24 22 24 8z
m36 -50 c-24 -24 -30 -7 -9 28 17 29 18 30 21 10 2 -13 -3 -30 -12 -38z m637
23 c-3 -9 -8 -14 -10 -11 -3 3 -2 9 2 15 9 16 15 13 8 -4z m1277 -34 c0 -10 3
-33 7 -51 5 -26 3 -32 -8 -28 -8 3 -14 16 -14 29 0 18 -6 25 -29 29 -36 6 -45
27 -14 33 48 9 58 7 58 -12z m-2093 -13 c-3 -8 -6 -5 -6 6 -1 11 2 17 5 13 3
-3 4 -12 1 -19z m43 8 c0 -8 -4 -17 -9 -20 -10 -7 -23 19 -14 28 11 11 23 6
23 -8z m749 -40 c-9 -8 -10 -7 -5 7 3 10 7 24 7 30 1 7 3 4 6 -7 3 -10 -1 -23
-8 -30z m135 10 c-3 -15 -8 -25 -11 -23 -2 3 -1 17 3 31 3 15 8 25 11 23 2 -3
1 -17 -3 -31z m-47 2 c-3 -8 -6 -5 -6 6 -1 11 2 17 5 13 3 -3 4 -12 1 -19z
m976 6 c7 -7 -43 -64 -55 -64 -4 0 2 16 13 35 21 35 30 41 42 29z m-1570 -44
c-5 -20 -15 -25 -26 -14 -9 9 4 34 18 34 8 0 11 -8 8 -20z m48 -12 c-3 -21 -6
-26 -9 -15 -3 17 3 47 11 47 2 0 1 -15 -2 -32z m579 -8 c0 -11 -4 -20 -9 -20
-5 0 -7 9 -4 20 3 11 7 20 9 20 2 0 4 -9 4 -20z"/>
<path d="M2775 3790 l-30 -8 32 -1 c17 0 35 4 38 9 7 11 3 11 -40 0z"/>
<path d="M1966 3674 c-11 -7 -16 -17 -13 -21 4 -4 15 1 24 10 22 21 14 30 -11
11z"/>
<path d="M1872 3622 c-36 -32 -42 -62 -13 -62 27 0 81 48 81 71 0 28 -31 24
-68 -9z"/>
<path d="M2535 3620 c-9 -14 97 -72 140 -77 38 -4 39 -3 21 11 -11 9 -27 16
-35 16 -9 0 -40 13 -68 29 -29 16 -55 26 -58 21z"/>
<path d="M1720 3350 c0 -5 7 -7 15 -4 8 4 15 8 15 10 0 2 -7 4 -15 4 -8 0 -15
-4 -15 -10z"/>
<path d="M1875 3329 c-4 -6 -5 -12 -2 -15 2 -3 7 2 10 11 7 17 1 20 -8 4z"/>
<path d="M1687 3284 c-4 -4 -7 -14 -7 -23 0 -11 3 -12 11 -4 6 6 10 16 7 23
-2 6 -7 8 -11 4z"/>
<path d="M1765 3255 c4 -22 10 -61 14 -87 8 -50 21 -76 21 -42 0 34 -21 138
-32 154 -6 10 -7 2 -3 -25z"/>
<path d="M1675 3208 c-2 -7 -6 -30 -10 -50 -3 -20 -11 -38 -17 -40 -12 -4 -26
-99 -20 -130 5 -26 24 -22 22 5 -5 56 1 107 14 120 15 14 33 107 22 107 -4 0
-8 -6 -11 -12z"/>
<path d="M1583 3080 c4 -18 7 -47 7 -64 1 -22 3 -27 9 -16 13 25 8 103 -8 108
-11 4 -13 -3 -8 -28z"/>
<path d="M1755 2908 c4 -91 2 -118 -7 -118 -9 0 -9 -3 -2 -8 13 -9 38 -71 31
-78 -3 -3 -15 -1 -26 6 -18 9 -21 8 -21 -9 0 -17 5 -20 30 -14 21 4 30 2 30
-7 0 -8 2 -11 5 -8 3 3 -1 51 -10 106 -8 56 -15 126 -16 154 0 29 -5 62 -10
73 -6 13 -8 -20 -4 -97z"/>
<path d="M1635 2920 c-3 -5 -1 -10 4 -10 6 0 11 5 11 10 0 6 -2 10 -4 10 -3 0
-8 -4 -11 -10z"/>
<path d="M3783 2193 c9 -2 23 -2 30 0 6 3 -1 5 -18 5 -16 0 -22 -2 -12 -5z"/>
<path d="M3752 2060 c6 -23 12 -39 14 -37 6 6 -9 77 -16 77 -4 0 -3 -18 2 -40z"/>
<path d="M2306 3332 c-4 -3 -29 -5 -57 -3 -39 2 -50 -1 -47 -10 3 -8 18 -16
34 -20 16 -3 42 -14 56 -23 21 -14 38 -16 76 -11 71 9 78 18 35 39 -50 24 -90
36 -97 28z"/>
<path d="M3295 3300 c3 -5 10 -10 16 -10 5 0 9 5 9 10 0 6 -7 10 -16 10 -8 0
-12 -4 -9 -10z"/>
<path d="M3465 3041 c3 -6 19 -17 36 -25 16 -8 47 -25 67 -37 l37 -23 -19 22
c-25 29 -136 86 -121 63z"/>
<path d="M3640 2801 c0 -5 -8 -12 -17 -14 -14 -4 -12 -5 5 -6 12 0 22 4 22 10
0 6 9 8 20 4 11 -3 28 -2 37 4 14 8 10 10 -24 11 -24 0 -43 -4 -43 -9z"/>
<path d="M2456 3191 c-4 -5 3 -7 14 -4 23 6 26 13 6 13 -8 0 -17 -4 -20 -9z"/>
<path d="M4576 240 c9 -38 24 -48 24 -16 0 15 -4 25 -9 22 -5 -4 -12 0 -15 6
-3 7 -3 2 0 -12z"/>
<path d="M1898 2551 c-4 -30 -3 -31 26 -25 17 3 42 1 56 -4 37 -15 102 -82 96
-99 -3 -8 -6 -19 -6 -24 0 -5 -7 -9 -15 -9 -8 0 -15 -5 -15 -12 0 -23 -28 16
-38 52 -8 31 -12 35 -41 33 -54 -2 -92 -23 -89 -47 2 -17 13 -23 61 -30 31 -4
57 -12 57 -16 0 -19 52 -19 89 0 35 17 41 25 47 66 11 73 -2 88 -93 112 -141
38 -130 37 -135 3z"/>
<path d="M3567 2469 c4 -13 8 -18 11 -10 2 7 -1 18 -6 23 -8 8 -9 4 -5 -13z"/>
<path d="M3332 2408 l5 -76 -39 -11 c-41 -13 -51 -38 -23 -61 13 -11 26 -11
71 0 30 7 57 18 61 23 5 9 -15 66 -43 119 -8 14 -14 35 -14 46 0 12 -5 24 -11
28 -9 5 -11 -14 -7 -68z"/>
<path d="M3578 2373 c-2 -38 -8 -77 -12 -88 -5 -11 1 -5 13 13 14 22 21 49 21
82 0 75 -18 69 -22 -7z"/>
<path d="M1804 2416 c11 -9 27 -16 35 -16 21 0 2 16 -29 24 -24 7 -24 6 -6 -8z"/>
<path d="M3140 2402 c0 -5 7 -15 15 -22 8 -7 15 -8 15 -2 0 5 -7 15 -15 22 -8
7 -15 8 -15 2z"/>
<path d="M1786 2371 c-8 -12 33 -63 45 -56 5 4 9 -3 9 -14 0 -20 1 -20 20 -4
30 26 25 52 -15 69 -40 16 -52 17 -59 5z"/>
<path d="M3485 2300 c-7 -12 12 -12 40 0 18 8 17 9 -7 9 -15 1 -30 -3 -33 -9z"/>
<path d="M1858 2245 c-10 -22 -20 -75 -23 -119 -3 -43 -10 -87 -16 -97 -12
-23 -11 -23 32 -2 41 21 296 37 317 21 16 -13 16 12 1 46 -13 29 -22 33 -104
52 -149 36 -153 37 -184 26 -35 -13 -37 -8 -15 43 8 20 14 44 12 53 -2 10 -10
0 -20 -23z m177 -156 c-56 -11 -105 -11 -105 1 0 6 30 10 73 9 65 -1 68 -2 32
-10z m50 -19 c-11 -5 -38 -8 -60 -8 l-40 1 35 7 c19 4 46 8 60 8 23 1 23 0 5
-8z"/>
<path d="M3379 2258 c0 -2 -3 -16 -5 -32 -5 -26 -3 -28 10 -16 18 14 22 50 6
50 -5 0 -10 -1 -11 -2z"/>
<path d="M2230 2034 c0 -8 32 -33 43 -34 5 0 5 4 2 10 -8 13 -45 33 -45 24z"/>
<path d="M1914 2017 c-11 -7 -37 -26 -57 -42 l-36 -31 30 -94 c21 -65 33 -124
36 -188 3 -51 9 -95 14 -97 12 -8 -1 187 -17 240 -8 28 -17 55 -20 60 -2 6 20
11 57 13 l60 3 -17 -28 c-18 -28 -18 -28 2 -10 11 9 25 32 31 50 9 32 9 32
-26 34 -37 2 -81 21 -81 35 0 4 25 19 55 33 30 13 55 26 55 29 0 11 -65 5 -86
-7z"/>
<path d="M1920 1810 c-13 -8 -13 -11 2 -27 21 -20 45 -5 35 21 -7 18 -16 20
-37 6z"/>
<path d="M1940 1755 c0 -5 4 -15 8 -21 13 -19 171 -134 184 -134 8 0 24 -7 36
-16 13 -9 26 -13 29 -10 4 3 4 8 2 9 -46 38 -126 91 -169 112 -30 15 -63 37
-72 49 -10 11 -18 17 -18 11z"/>
<path d="M2235 1750 c3 -5 16 -15 28 -21 22 -12 22 -12 3 10 -19 21 -43 30
-31 11z"/>
<path d="M3426 1675 c4 -11 24 -67 45 -125 21 -58 38 -96 38 -85 1 32 -50 180
-71 206 -16 20 -19 20 -12 4z"/>
<path d="M2231 1653 c55 -41 199 -116 207 -109 6 6 -62 48 -147 90 -82 40 -95
44 -60 19z"/>
<path d="M3365 1515 c16 -13 31 -22 34 -20 5 6 -41 44 -54 44 -5 0 3 -11 20
-24z"/>
<path d="M1901 1514 c0 -11 3 -14 6 -6 3 7 2 16 -1 19 -3 4 -6 -2 -5 -13z"/>
<path d="M3172 1342 c5 -14 128 -111 162 -129 l29 -15 -22 28 c-22 27 -176
133 -169 116z"/>
<path d="M3360 1336 c0 -3 9 -10 20 -16 11 -6 20 -8 20 -6 0 3 -9 10 -20 16
-11 6 -20 8 -20 6z"/>
<path d="M4585 1317 c-77 -43 -120 -72 -142 -97 -27 -32 -20 -40 10 -12 13 12
27 19 31 15 4 -5 6 -1 4 7 -2 8 10 21 27 30 17 9 57 30 90 48 35 18 52 31 40
31 -11 0 -38 -10 -60 -22z"/>
<path d="M4110 1307 c3 -3 34 -27 70 -53 36 -26 70 -54 75 -61 6 -8 18 -11 28
-7 22 8 22 24 1 24 -9 0 -38 15 -64 34 -43 31 -123 77 -110 63z"/>
<path d="M4470 1302 c0 -5 -10 -14 -22 -20 -16 -7 -18 -11 -7 -11 9 -1 24 8
34 19 10 11 13 20 7 20 -7 0 -12 -4 -12 -8z"/>
<path d="M2346 1268 c10 -14 21 -24 23 -22 3 3 -6 15 -18 27 l-24 22 19 -27z"/>
<path d="M4533 1243 c9 -2 25 -2 35 0 9 3 1 5 -18 5 -19 0 -27 -2 -17 -5z"/>
<path d="M4887 1211 c27 -26 113 -31 113 -7 0 11 -12 14 -47 13 -27 -1 -57 2
-68 7 -18 8 -18 7 2 -13z"/>
<path d="M2391 1184 c0 -11 3 -14 6 -6 3 7 2 16 -1 19 -3 4 -6 -2 -5 -13z"/>
<path d="M2585 1180 c11 -18 145 -130 155 -130 6 0 -24 32 -66 70 -69 63 -106
88 -89 60z"/>
<path d="M3977 1183 c-4 -3 -7 -11 -7 -17 0 -6 5 -5 12 2 6 6 9 14 7 17 -3 3
-9 2 -12 -2z"/>
<path d="M2400 1144 c0 -5 11 -34 25 -62 14 -29 25 -54 25 -58 0 -3 13 -24 28
-47 16 -23 46 -84 67 -134 36 -88 119 -229 158 -267 9 -10 17 -22 17 -27 0 -5
5 -9 10 -9 6 0 10 30 10 69 0 68 0 69 -37 96 -55 41 -71 64 -78 117 -7 45 -8
47 -43 50 -27 2 -38 8 -41 23 -2 10 -20 46 -41 80 -21 33 -52 87 -69 120 -17
33 -31 55 -31 49z"/>
<path d="M4985 1110 c-3 -5 -1 -10 4 -10 6 0 11 5 11 10 0 6 -2 10 -4 10 -3 0
-8 -4 -11 -10z"/>
<path d="M4730 970 c-9 -6 -10 -10 -3 -10 6 0 15 5 18 10 8 12 4 12 -15 0z"/>
<path d="M3843 870 c-32 -13 -29 -22 4 -14 19 5 30 2 38 -10 11 -15 13 -15 19
-1 3 8 6 18 6 22 1 11 -43 13 -67 3z"/>
<path d="M4722 784 c-7 -8 -8 -14 -3 -14 10 0 25 19 20 25 -2 1 -10 -3 -17
-11z"/>
<path d="M4735 720 c-18 -8 -18 -9 5 -8 14 0 39 4 55 8 l30 8 -35 0 c-19 0
-44 -3 -55 -8z"/>
<path d="M4765 515 c3 -22 10 -69 16 -105 6 -36 12 -79 13 -96 2 -17 6 -36 10
-43 4 -6 2 -11 -4 -11 -8 0 -9 -7 -5 -17 3 -10 9 -38 11 -63 3 -25 8 -52 11
-60 9 -21 4 -42 -14 -62 -15 -16 -15 -18 0 -18 10 0 17 -8 17 -20 0 -12 7 -20
16 -20 11 0 15 6 11 19 -3 12 1 22 9 25 11 4 12 10 5 23 -19 35 -41 153 -41
217 0 53 3 65 18 69 13 3 12 6 -10 15 -24 10 -27 17 -34 81 -3 39 -13 79 -21
88 -13 16 -14 14 -8 -22z"/>
<path d="M3777 490 c-3 -11 -1 -20 4 -20 5 0 9 9 9 20 0 11 -2 20 -4 20 -2 0
-6 -9 -9 -20z"/>
<path d="M4518 503 c-9 -2 -19 -11 -22 -19 -4 -10 -2 -13 6 -8 7 4 35 13 63
20 l50 12 -40 0 c-22 0 -47 -2 -57 -5z"/>
<path d="M4212 485 c-12 -7 -34 -22 -47 -35 -13 -12 -43 -32 -66 -44 -23 -11
-47 -30 -53 -41 -6 -10 -17 -25 -23 -33 -22 -23 -14 -24 17 -2 17 12 30 25 30
30 0 5 15 17 33 26 17 9 46 29 62 44 17 15 40 31 53 35 12 3 22 13 22 21 0 8
-1 14 -2 13 -2 -1 -13 -7 -26 -14z"/>
<path d="M2440 200 c-22 -7 -21 -8 13 -9 23 -1 36 3 32 9 -7 11 -10 11 -45 0z"/>
<path d="M2183 75 c-6 -20 -7 -35 -2 -35 5 0 9 -7 9 -15 0 -19 -14 -19 -30 0
-8 10 -25 14 -46 11 -24 -2 -34 1 -34 10 0 8 -3 14 -7 15 -5 0 -17 2 -29 4
-14 3 -32 -7 -54 -30 -19 -19 -29 -35 -23 -35 7 0 15 5 18 10 3 6 14 10 23 10
15 0 15 -2 2 -10 -10 -7 19 -10 92 -10 l107 0 -4 51 c-4 63 -9 68 -22 24z"/>
<path d="M4748 99 c-8 -22 2 -99 13 -99 11 0 11 20 1 75 -5 27 -10 35 -14 24z"/>
<path d="M2326 91 c-6 -9 35 -24 43 -15 6 5 -18 24 -31 24 -4 0 -9 -4 -12 -9z"/>
<path d="M2106 63 c-6 -14 -5 -15 5 -6 7 7 10 15 7 18 -3 3 -9 -2 -12 -12z"/>
<path d="M2281 33 c0 -29 2 -33 8 -18 7 18 4 55 -5 55 -2 0 -4 -17 -3 -37z"/>
</g>
</svg>
